<!DOCTYPE svg PUBLIC "-//W3C//DTD SVG 1.1//EN" "http://www.w3.org/Graphics/SVG/1.1/DTD/svg11.dtd">
<!-- Uploaded to: SVG Repo, www.svgrepo.com, Transformed by: SVG Repo Mixer Tools -->
<svg version="1.1" id="Layer_1" xmlns="http://www.w3.org/2000/svg" xmlns:xlink="http://www.w3.org/1999/xlink" viewBox="0 0 504 504" xml:space="preserve" width="64px" height="64px" fill="#000000">
<g id="SVGRepo_bgCarrier" stroke-width="0"/>
<g id="SVGRepo_tracerCarrier" stroke-linecap="round" stroke-linejoin="round"/>
<g id="SVGRepo_iconCarrier"> <circle style="fill:#FFC114;" cx="252" cy="248" r="236"/> <path style="fill:#A8A8A8;" d="M504,492c-65.6-64-154.4-100-252-100S65.6,428,0,492H504z"/> <path style="fill:#8C8C8C;" d="M252,392c97.6,0,186.4,36,252,100H371.2l-116-87.2L252,392z"/> <path style="fill:#0AA06E;" d="M324,404V99.2c0-37.6-34.4-68.8-72-68.8s-72,30.4-72,68.8V404H324z"/> <g> <path style="fill:#078457;" d="M252,404h72V99.2c0-37.6-33.6-68.8-72-68.8"/> <rect x="213.929" y="209.584" transform="matrix(-0.7072 0.7071 -0.7071 -0.7072 599.606 308.4362)" style="fill:#078457;" width="44.003" height="137.608"/> </g> <path style="fill:#0AA06E;" d="M164,244v-72.8c0-17.6-14.4-32-32-32s-32,14.4-32,32V244H164z"/> <path style="fill:#078457;" d="M132,139.2V244h32v-72.8C164,153.6,148,139.2,132,139.2z"/> <path style="fill:#0AA06E;" d="M204,212h-71.2c-17.6,0-32,14.4-32,32s14.4,32,32,32H204V212z"/> <path style="fill:#078457;" d="M340,340v-68.8c0-17.6,14.4-32,32-32s32,14.4,32,32V340H340z"/> <path style="fill:#0AA06E;" d="M372,239.2V340h-32v-68.8C340,253.6,356,239.2,372,239.2z"/> <path style="fill:#078457;" d="M300,308h71.2c17.6,0,32,14.4,32,32s-14.4,32-32,32H300V308z"/> <ellipse style="fill:#0AA06E;" cx="202.4" cy="244.8" rx="8.8" ry="30.4"/> <g> <polyline style="fill:#078457;" points="184,137.6 164.8,119.2 184,100.8 "/> <polyline style="fill:#078457;" points="222.4,176 203.2,157.6 222.4,139.2 "/> <polyline style="fill:#078457;" points="100.8,223.2 82.4,204.8 100.8,186.4 "/> <polyline style="fill:#078457;" points="139.2,261.6 120.8,243.2 139.2,224.8 "/> <polyline style="fill:#078457;" points="184,327.2 164.8,308.8 184,289.6 "/> <polyline style="fill:#078457;" points="222.4,365.6 203.2,347.2 222.4,328 "/> </g> <g> <polyline style="fill:#0AA06E;" points="320,137.6 339.2,119.2 320,100.8 "/> <polyline style="fill:#0AA06E;" points="281.6,176 300.8,157.6 281.6,139.2 "/> <polyline style="fill:#0AA06E;" points="403.2,324 421.6,305.6 403.2,286.4 "/> <polyline style="fill:#0AA06E;" points="364.8,362.4 383.2,344 364.8,324.8 "/> <polyline style="fill:#0AA06E;" points="320,235.2 339.2,216.8 320,198.4 "/> <polyline style="fill:#0AA06E;" points="281.6,273.6 300.8,255.2 281.6,236.8 "/> </g> </g>
</svg>